<svg width="279" height="279" viewBox="0 0 279 279" fill="none" xmlns="http://www.w3.org/2000/svg">
<rect width="279" height="279" fill="white"/>
<ellipse cx="93.0353" cy="244.341" rx="15" ry="7" transform="rotate(10.6505 93.0353 244.341)" fill="black"/>
<path d="M107.685 247.605L92.9215 244.367C92.9215 244.367 92.323 216.656 98.1226 209.176C99.8547 206.942 115.951 214.162 116.561 216.115C119.65 226.006 107.685 247.605 107.685 247.605Z" fill="black"/>
<ellipse cx="15" cy="7" rx="15" ry="7" transform="matrix(-0.968652 0.248422 0.248422 0.968652 195.283 234.7)" fill="black"/>
<path d="M168.078 249.388L182.608 245.225C182.608 245.225 180.965 216.732 174.19 207.97C172.166 205.354 155.641 209.838 155.263 212.171C153.347 223.987 168.078 249.388 168.078 249.388Z" fill="black"/>
<path d="M65.2668 71.2699L117.583 34.3255C120.866 32.0069 125.218 31.8795 128.632 34.0019L181.993 67.1826C183.591 68.1766 184.63 69.8632 184.8 71.738L187.462 101.202C187.677 103.577 189.278 105.6 191.541 106.354L219.474 115.659C222.373 116.625 224.083 119.616 223.445 122.605L209.495 187.935C209.204 189.3 208.445 190.521 207.351 191.387L161.494 227.675C159.885 228.948 157.737 229.311 155.8 228.637L139.193 222.861C137.867 222.4 136.422 222.418 135.108 222.913L117.751 229.445C115.645 230.238 113.273 229.785 111.607 228.274L72.364 192.679C70.9006 191.352 70.1844 189.389 70.4492 187.431L78.0508 131.208C78.4532 128.232 76.5931 125.417 73.6976 124.62L58.0498 120.311C55.6385 119.648 53.8919 117.558 53.6668 115.067L52.9057 106.643C52.7417 104.827 53.4117 103.036 54.7268 101.774L62.1151 94.6832C63.4301 93.4211 64.1002 91.6296 63.9362 89.8143L62.7523 76.7109C62.5596 74.5785 63.5179 72.505 65.2668 71.2699Z" fill="#3977F4" stroke="black" stroke-width="3"/>
<path d="M126.954 123L121 123.743L121.681 129.201L127.635 128.458" stroke="black" stroke-width="3"/>
<path d="M100.063 83.404C103.871 83.12 107.608 84.9742 110.566 88.4659C113.523 91.9561 115.613 97.0009 116.044 102.781C116.476 108.561 115.157 113.86 112.75 117.751C110.343 121.643 106.922 124.031 103.114 124.315C99.3063 124.599 95.5691 122.745 92.6109 119.253C89.654 115.763 87.5636 110.717 87.1325 104.937C86.7015 99.1572 88.0204 93.8582 90.4267 89.968C92.8342 86.0761 96.2549 83.688 100.063 83.404Z" fill="white" stroke="black" stroke-width="3"/>
<path d="M106.34 104.636C107.235 114.353 103.92 122.602 98.9372 123.061C93.9542 123.52 89.1894 116.014 88.2948 106.298C87.4002 96.5806 86.2648 91.144 91.2478 90.6852C93.7435 90.4555 100.438 88.3467 103.48 90.6853C106.512 93.0161 105.893 99.7858 106.34 104.636Z" fill="black"/>
<path d="M149.586 80.686C153.394 80.402 157.131 82.2562 160.089 85.7479C163.046 89.2381 165.136 94.2829 165.567 100.063C165.998 105.843 164.68 111.142 162.273 115.033C159.866 118.925 156.445 121.313 152.637 121.597C148.829 121.881 145.092 120.027 142.134 116.535C139.177 113.045 137.087 107.999 136.655 102.219C136.224 96.4392 137.543 91.1402 139.95 87.25C142.357 83.3581 145.778 80.97 149.586 80.686Z" fill="white" stroke="black" stroke-width="3"/>
<path d="M155.751 101.811C156.645 111.528 153.331 119.777 148.348 120.236C143.365 120.695 138.6 113.189 137.705 103.472C136.811 93.7554 135.675 88.3188 140.658 87.86C143.154 87.6303 149.849 85.5215 152.891 87.8601C155.922 90.1909 155.304 96.9606 155.751 101.811Z" fill="black"/>
<ellipse cx="213.359" cy="82.2805" rx="8.79257" ry="6.90845" transform="rotate(28.6796 213.359 82.2805)" fill="black"/>
<path d="M207.938 84.3814L215.202 87.2807C215.202 87.2807 211.751 105.5 207.252 111C205.908 112.643 197.25 109.5 197.252 108C197.259 100.402 207.938 84.3814 207.938 84.3814Z" fill="black"/>
<ellipse cx="46.17" cy="136.424" rx="8.79257" ry="6.90845" transform="rotate(-73.0648 46.17 136.424)" fill="black"/>
<path d="M49.3301 141.304L50.6901 133.602C50.6901 133.602 69.2304 133.272 75.531 136.557C77.4126 137.538 76.0981 146.655 74.6292 146.959C67.1885 148.498 49.3301 141.304 49.3301 141.304Z" fill="black"/>
<path d="M121 144.5C134 148.667 164.6 152 183 132" stroke="black" stroke-width="3"/>
</svg>
