<svg width="20" height="20" viewBox="0 0 20 20" fill="none" xmlns="http://www.w3.org/2000/svg">
<path d="M19.8428 18.7685C19.9288 18.8827 19.9812 19.0187 19.9942 19.1611C20.0072 19.3035 19.9802 19.4467 19.9163 19.5746C19.8524 19.7026 19.7541 19.8101 19.6324 19.8853C19.5108 19.9604 19.3706 20.0001 19.2276 20H0.769103C0.626271 20 0.486261 19.9602 0.364762 19.8851C0.243262 19.81 0.145073 19.7026 0.0811966 19.5749C0.0173204 19.4471 -0.009719 19.3041 0.00310807 19.1618C0.0159351 19.0196 0.068122 18.8837 0.153821 18.7694C0.834846 17.8564 1.743 17.1375 2.788 16.6842C2.21519 16.1614 1.81383 15.4776 1.6366 14.7226C1.45938 13.9676 1.51456 13.1767 1.79492 12.4536C2.07528 11.7306 2.56771 11.1092 3.20757 10.671C3.84744 10.2328 4.60483 9.99833 5.38035 9.99833C6.15587 9.99833 6.91327 10.2328 7.55313 10.671C8.19299 11.1092 8.68542 11.7306 8.96578 12.4536C9.24614 13.1767 9.30133 13.9676 9.1241 14.7226C8.94688 15.4776 8.54552 16.1614 7.97271 16.6842C8.72664 17.0101 9.41176 17.4763 9.9916 18.058C10.5714 17.4763 11.2566 17.0101 12.0105 16.6842C11.4377 16.1614 11.0363 15.4776 10.8591 14.7226C10.6819 13.9676 10.7371 13.1767 11.0174 12.4536C11.2978 11.7306 11.7902 11.1092 12.4301 10.671C13.0699 10.2328 13.8273 9.99833 14.6029 9.99833C15.3784 9.99833 16.1358 10.2328 16.7756 10.671C17.4155 11.1092 17.9079 11.7306 18.1883 12.4536C18.4686 13.1767 18.5238 13.9676 18.3466 14.7226C18.1694 15.4776 17.768 16.1614 17.1952 16.6842C18.2451 17.1351 19.1581 17.8538 19.8428 18.7685ZM0.307641 9.84785C0.388441 9.90845 0.480386 9.95254 0.578226 9.97761C0.676066 10.0027 0.777885 10.0082 0.87787 9.99394C0.977855 9.97965 1.07405 9.94582 1.16096 9.89436C1.24786 9.8429 1.32378 9.77483 1.38438 9.69403C1.85004 9.07315 2.45386 8.56922 3.14802 8.22214C3.84218 7.87506 4.60762 7.69436 5.38372 7.69436C6.15981 7.69436 6.92525 7.87506 7.61941 8.22214C8.31357 8.56922 8.91739 9.07315 9.38305 9.69403C9.45469 9.78955 9.54758 9.86707 9.65438 9.92047C9.76117 9.97387 9.87893 10.0017 9.99833 10.0017C10.1177 10.0017 10.2355 9.97387 10.3423 9.92047C10.4491 9.86707 10.542 9.78955 10.6136 9.69403C11.0793 9.07315 11.6831 8.56922 12.3773 8.22214C13.0714 7.87506 13.8369 7.69436 14.6129 7.69436C15.389 7.69436 16.1545 7.87506 16.8486 8.22214C17.5428 8.56922 18.1466 9.07315 18.6123 9.69403C18.6729 9.77483 18.7489 9.84289 18.8359 9.89432C18.9229 9.94576 19.0191 9.97956 19.1191 9.9938C19.2192 10.008 19.321 10.0024 19.4189 9.97731C19.5167 9.95218 19.6087 9.90803 19.6895 9.84737C19.7703 9.7867 19.8384 9.71072 19.8898 9.62375C19.9412 9.53679 19.975 9.44054 19.9893 9.34051C20.0035 9.24048 19.9979 9.13863 19.9728 9.04076C19.9477 8.9429 19.9035 8.85094 19.8428 8.77014C19.1618 7.85734 18.2536 7.13876 17.2087 6.68587C17.7815 6.16308 18.1828 5.47931 18.3601 4.72431C18.5373 3.96932 18.4821 3.17838 18.2017 2.45531C17.9214 1.73224 17.429 1.11084 16.7891 0.672659C16.1492 0.234478 15.3918 0 14.6163 0C13.8408 0 13.0834 0.234478 12.4435 0.672659C11.8037 1.11084 11.3112 1.73224 11.0309 2.45531C10.7505 3.17838 10.6953 3.96932 10.8726 4.72431C11.0498 5.47931 11.4511 6.16308 12.024 6.68587C11.27 7.01176 10.5849 7.47797 10.0051 8.05968C9.42522 7.47797 8.7401 7.01176 7.98617 6.68587C8.55898 6.16308 8.96034 5.47931 9.13756 4.72431C9.31479 3.96932 9.2596 3.17838 8.97924 2.45531C8.69888 1.73224 8.20645 1.11084 7.56659 0.672659C6.92673 0.234478 6.16933 0 5.39381 0C4.61829 0 3.8609 0.234478 3.22103 0.672659C2.58117 1.11084 2.08874 1.73224 1.80838 2.45531C1.52802 3.17838 1.47283 3.96932 1.65006 4.72431C1.82729 5.47931 2.22865 6.16308 2.80146 6.68587C1.75156 7.13714 0.838565 7.8562 0.153821 8.7711C0.0932209 8.8519 0.0491289 8.94385 0.0240627 9.04169C-0.0010036 9.13953 -0.00655331 9.24135 0.00773024 9.34133C0.0220138 9.44132 0.055851 9.53751 0.10731 9.62442C0.158769 9.71133 0.226841 9.78725 0.307641 9.84785Z" fill="#3977F4"/>
</svg>
