<svg width="24" height="24" viewBox="0 0 24 24" fill="none" xmlns="http://www.w3.org/2000/svg">
<path d="M22.0928 21.0152C22.1788 21.1294 22.2312 21.2654 22.2442 21.4078C22.2572 21.5502 22.2302 21.6934 22.1663 21.8213C22.1024 21.9493 22.0041 22.0568 21.8824 22.132C21.7608 22.2071 21.6206 22.2468 21.4776 22.2467H3.0191C2.87627 22.2467 2.73626 22.2069 2.61476 22.1318C2.49326 22.0567 2.39507 21.9493 2.3312 21.8216C2.26732 21.6938 2.24028 21.5508 2.25311 21.4085C2.26594 21.2663 2.31812 21.1304 2.40382 21.0161C3.08485 20.1031 3.993 19.3842 5.038 18.9309C4.46519 18.4081 4.06383 17.7243 3.8866 16.9693C3.70938 16.2144 3.76456 15.4234 4.04492 14.7003C4.32528 13.9773 4.81771 13.3559 5.45757 12.9177C6.09744 12.4795 6.85483 12.245 7.63035 12.245C8.40587 12.245 9.16327 12.4795 9.80313 12.9177C10.443 13.3559 10.9354 13.9773 11.2158 14.7003C11.4961 15.4234 11.5513 16.2144 11.3741 16.9693C11.1969 17.7243 10.7955 18.4081 10.2227 18.9309C10.9766 19.2568 11.6618 19.723 12.2416 20.3047C12.8214 19.723 13.5066 19.2568 14.2605 18.9309C13.6877 18.4081 13.2863 17.7243 13.1091 16.9693C12.9319 16.2144 12.9871 15.4234 13.2674 14.7003C13.5478 13.9773 14.0402 13.3559 14.6801 12.9177C15.3199 12.4795 16.0773 12.245 16.8529 12.245C17.6284 12.245 18.3858 12.4795 19.0256 12.9177C19.6655 13.3559 20.1579 13.9773 20.4383 14.7003C20.7186 15.4234 20.7738 16.2144 20.5966 16.9693C20.4194 17.7243 20.018 18.4081 19.4452 18.9309C20.4951 19.3818 21.4081 20.1005 22.0928 21.0152ZM2.55764 12.0946C2.63844 12.1552 2.73039 12.1992 2.82823 12.2243C2.92607 12.2494 3.02789 12.2549 3.12787 12.2406C3.22786 12.2264 3.32405 12.1925 3.41096 12.1411C3.49786 12.0896 3.57378 12.0215 3.63438 11.9407C4.10004 11.3199 4.70386 10.8159 5.39802 10.4688C6.09218 10.1218 6.85762 9.94106 7.63372 9.94106C8.40981 9.94106 9.17525 10.1218 9.86941 10.4688C10.5636 10.8159 11.1674 11.3199 11.633 11.9407C11.7047 12.0363 11.7976 12.1138 11.9044 12.1672C12.0112 12.2206 12.1289 12.2484 12.2483 12.2484C12.3677 12.2484 12.4855 12.2206 12.5923 12.1672C12.6991 12.1138 12.792 12.0363 12.8636 11.9407C13.3293 11.3199 13.9331 10.8159 14.6273 10.4688C15.3214 10.1218 16.0869 9.94106 16.8629 9.94106C17.639 9.94106 18.4045 10.1218 19.0986 10.4688C19.7928 10.8159 20.3966 11.3199 20.8623 11.9407C20.9229 12.0215 20.9989 12.0896 21.0859 12.141C21.1729 12.1925 21.2691 12.2263 21.3691 12.2405C21.4692 12.2547 21.571 12.2491 21.6689 12.224C21.7667 12.1989 21.8587 12.1547 21.9395 12.0941C22.0203 12.0334 22.0884 11.9574 22.1398 11.8705C22.1912 11.7835 22.225 11.6872 22.2393 11.5872C22.2535 11.4872 22.2479 11.3853 22.2228 11.2875C22.1977 11.1896 22.1535 11.0976 22.0928 11.0168C21.4118 10.104 20.5036 9.38546 19.4587 8.93258C20.0315 8.40978 20.4328 7.72601 20.6101 6.97102C20.7873 6.21602 20.7321 5.42508 20.4517 4.70202C20.1714 3.97895 19.679 3.35754 19.0391 2.91936C18.3992 2.48118 17.6418 2.2467 16.8663 2.2467C16.0908 2.2467 15.3334 2.48118 14.6935 2.91936C14.0537 3.35754 13.5612 3.97895 13.2809 4.70202C13.0005 5.42508 12.9453 6.21602 13.1226 6.97102C13.2998 7.72601 13.7011 8.40978 14.274 8.93258C13.52 9.25846 12.8349 9.72467 12.2551 10.3064C11.6752 9.72467 10.9901 9.25846 10.2362 8.93258C10.809 8.40978 11.2103 7.72601 11.3876 6.97102C11.5648 6.21602 11.5096 5.42508 11.2292 4.70202C10.9489 3.97895 10.4565 3.35754 9.81659 2.91936C9.17673 2.48118 8.41933 2.2467 7.64381 2.2467C6.86829 2.2467 6.1109 2.48118 5.47103 2.91936C4.83117 3.35754 4.33874 3.97895 4.05838 4.70202C3.77802 5.42508 3.72283 6.21602 3.90006 6.97102C4.07729 7.72601 4.47865 8.40978 5.05146 8.93258C4.00156 9.38384 3.08856 10.1029 2.40382 11.0178C2.34322 11.0986 2.29913 11.1906 2.27406 11.2884C2.249 11.3862 2.24345 11.4881 2.25773 11.588C2.27201 11.688 2.30585 11.7842 2.35731 11.8711C2.40877 11.958 2.47684 12.034 2.55764 12.0946Z" fill="#3977F4"/>
</svg>
