<svg width="24" height="24" viewBox="0 0 24 24" fill="none" xmlns="http://www.w3.org/2000/svg">
<path d="M12 1.875C9.99747 1.875 8.0399 2.46882 6.37486 3.58137C4.70981 4.69392 3.41206 6.27523 2.64572 8.12533C1.87939 9.97543 1.67888 12.0112 2.06955 13.9753C2.46023 15.9393 3.42454 17.7435 4.84055 19.1595C6.25656 20.5755 8.06066 21.5398 10.0247 21.9305C11.9888 22.3211 14.0246 22.1206 15.8747 21.3543C17.7248 20.5879 19.3061 19.2902 20.4186 17.6251C21.5312 15.9601 22.125 14.0025 22.125 12C22.122 9.3156 21.0543 6.74199 19.1562 4.84383C17.258 2.94567 14.6844 1.87798 12 1.875ZM12 19.875C10.4425 19.875 8.91993 19.4131 7.62489 18.5478C6.32985 17.6825 5.32049 16.4526 4.72445 15.0136C4.12841 13.5747 3.97246 11.9913 4.27632 10.4637C4.58018 8.93606 5.3302 7.53287 6.43154 6.43153C7.53288 5.3302 8.93607 4.58017 10.4637 4.27632C11.9913 3.97246 13.5747 4.12841 15.0136 4.72445C16.4526 5.32049 17.6825 6.32985 18.5478 7.62488C19.4131 8.91992 19.875 10.4425 19.875 12C19.8728 14.0879 19.0424 16.0896 17.566 17.566C16.0896 19.0424 14.0879 19.8728 12 19.875ZM12.75 7.125H9.75C9.45164 7.125 9.16549 7.24353 8.95451 7.4545C8.74353 7.66548 8.625 7.95163 8.625 8.25V15.75C8.625 16.0484 8.74353 16.3345 8.95451 16.5455C9.16549 16.7565 9.45164 16.875 9.75 16.875C10.0484 16.875 10.3345 16.7565 10.5455 16.5455C10.7565 16.3345 10.875 16.0484 10.875 15.75V14.625H12.75C13.7446 14.625 14.6984 14.2299 15.4017 13.5267C16.1049 12.8234 16.5 11.8696 16.5 10.875C16.5 9.88044 16.1049 8.92661 15.4017 8.22335C14.6984 7.52009 13.7446 7.125 12.75 7.125ZM12.75 12.375H10.875V9.375H12.75C13.1478 9.375 13.5294 9.53304 13.8107 9.81434C14.092 10.0956 14.25 10.4772 14.25 10.875C14.25 11.2728 14.092 11.6544 13.8107 11.9357C13.5294 12.217 13.1478 12.375 12.75 12.375Z" fill="#1A1A1A"/>
</svg>
