<svg width="9" height="9" viewBox="0 0 9 9" fill="none" xmlns="http://www.w3.org/2000/svg">
<path d="M3.10297 1.74336C3.02958 1.67016 2.93892 1.61662 2.83938 1.58769C2.73984 1.55876 2.63461 1.55536 2.53341 1.57782C2.43221 1.60028 2.3383 1.64787 2.26034 1.71619C2.18238 1.78451 2.12289 1.87137 2.08735 1.96875L0.0369557 7.60859C0.00327266 7.7016 -0.00760735 7.80132 0.00522887 7.8994C0.0180651 7.99748 0.0542429 8.09105 0.110726 8.17225C0.167208 8.25346 0.242347 8.31993 0.329835 8.36608C0.417322 8.41223 0.514606 8.43673 0.613518 8.4375C0.686345 8.43701 0.758525 8.42379 0.8268 8.39844L6.46625 6.34766C6.56366 6.31216 6.65056 6.2527 6.71892 6.17476C6.78729 6.09682 6.83492 6.00291 6.85742 5.90171C6.87992 5.8005 6.87656 5.69526 6.84765 5.5957C6.81875 5.49613 6.76523 5.40545 6.69203 5.33203L3.10297 1.74336ZM1.29242 5.98164L2.04242 3.91953L4.51586 6.39297L2.45336 7.14297L1.29242 5.98164ZM4.99789 2.5C5.00376 2.28874 5.05491 2.0812 5.14789 1.89141C5.35492 1.47773 5.74555 1.25 6.24789 1.25C6.50961 1.25 6.67758 1.16055 6.7811 0.968359C6.8356 0.860839 6.86688 0.743054 6.87289 0.622656C6.8732 0.539776 6.90643 0.460414 6.96525 0.402029C7.02408 0.343643 7.10368 0.311017 7.18656 0.311328C7.26944 0.311639 7.34881 0.344861 7.40719 0.403686C7.46558 0.462511 7.4982 0.54212 7.49789 0.625C7.49789 1.12734 7.16508 1.875 6.24789 1.875C5.98617 1.875 5.81821 1.96445 5.71469 2.15664C5.66018 2.26416 5.62891 2.38195 5.62289 2.50234C5.62274 2.54338 5.6145 2.58399 5.59866 2.62184C5.58281 2.6597 5.55966 2.69406 5.53053 2.72297C5.50141 2.75188 5.46687 2.77477 5.4289 2.79033C5.39093 2.8059 5.35026 2.81383 5.30922 2.81367C5.26818 2.81352 5.22758 2.80528 5.18972 2.78944C5.15187 2.77359 5.1175 2.75044 5.08859 2.72131C5.05968 2.69219 5.03679 2.65765 5.02123 2.61968C5.00567 2.5817 4.99774 2.54104 4.99789 2.5ZM4.06039 1.25V0.3125C4.06039 0.22962 4.09332 0.150134 4.15192 0.0915291C4.21053 0.032924 4.29001 0 4.37289 0C4.45577 0 4.53526 0.032924 4.59386 0.0915291C4.65247 0.150134 4.68539 0.22962 4.68539 0.3125V1.25C4.68539 1.33288 4.65247 1.41237 4.59386 1.47097C4.53526 1.52958 4.45577 1.5625 4.37289 1.5625C4.29001 1.5625 4.21053 1.52958 4.15192 1.47097C4.09332 1.41237 4.06039 1.33288 4.06039 1.25ZM8.03149 4.46641C8.0605 4.49544 8.0835 4.5299 8.09919 4.56783C8.11488 4.60576 8.12295 4.6464 8.12293 4.68744C8.12291 4.72849 8.11481 4.76912 8.09909 4.80703C8.08336 4.84495 8.06033 4.87939 8.03129 4.9084C8.00226 4.93741 7.96779 4.96041 7.92987 4.9761C7.89194 4.99179 7.8513 4.99986 7.81025 4.99984C7.76921 4.99982 7.72857 4.99172 7.69066 4.976C7.65275 4.96027 7.61831 4.93724 7.5893 4.9082L6.9643 4.2832C6.90566 4.22457 6.87272 4.14504 6.87272 4.06211C6.87272 3.97918 6.90566 3.89965 6.9643 3.84102C7.02294 3.78238 7.10247 3.74944 7.18539 3.74944C7.26832 3.74944 7.34785 3.78238 7.40649 3.84102L8.03149 4.46641ZM8.22172 2.79648L7.28422 3.10898C7.20559 3.1352 7.11976 3.1291 7.04563 3.09203C6.97149 3.05496 6.91512 2.98996 6.88891 2.91133C6.8627 2.8327 6.8688 2.74687 6.90587 2.67274C6.94293 2.5986 7.00793 2.54223 7.08657 2.51602L8.02407 2.20352C8.1027 2.1773 8.18852 2.1834 8.26266 2.22047C8.33679 2.25754 8.39317 2.32254 8.41938 2.40117C8.44559 2.4798 8.43949 2.56563 8.40242 2.63976C8.36535 2.7139 8.30035 2.77027 8.22172 2.79648Z" fill="#3977F4"/>
</svg>
